<svg xmlns="http://www.w3.org/2000/svg" width="3200" height="1116" viewBox="0 0 7909 2758" fill="none"><path d="M573 -24C875 -24 1078 201 1078 526C1078 853 875 1080 573 1080C271 1080 67 853 67 526C67 201 271 -24 573 -24ZM573 158C392 158 281 301 281 526C281 753 393 898 573 898C753 898 865 753 865 526C865 302 754 158 573 158Z" transform="translate(140,2124) scale(1,-1)" fill="#FFFFFF"/><path d="M119 0H330V624C330 796 427 877 546 877C595 877 641 870 657 867V1064C640 1066 612 1069 580 1069C446 1069 364 1000 325 885H321V1056H119Z" transform="translate(1228,2124) scale(1,-1)" fill="#FFFFFF"/><path d="M119 0H330V1056H119ZM224 1238C299 1238 358 1295 358 1367C358 1440 299 1497 224 1497C149 1497 91 1440 91 1367C91 1295 149 1238 224 1238Z" transform="translate(1901,2124) scale(1,-1)" fill="#FFFFFF"/><path d="M580 -432C846 -432 1061 -306 1061 14V1056H853V895H852C781 1021 661 1077 524 1077C251 1077 67 854 67 531C67 209 250 -14 525 -14C664 -14 778 43 851 166H852V6C852 -165 750 -260 580 -260C452 -260 357 -207 330 -105H119C147 -312 321 -432 580 -432ZM568 167C398 167 281 295 281 532C281 769 398 897 568 897C748 897 864 753 864 532C864 311 748 167 568 167Z" transform="translate(2308,2124) scale(1,-1)" fill="#FFFFFF"/><path d="M119 0H330V1056H119ZM224 1238C299 1238 358 1295 358 1367C358 1440 299 1497 224 1497C149 1497 91 1440 91 1367C91 1295 149 1238 224 1238Z" transform="translate(3456,2124) scale(1,-1)" fill="#FFFFFF"/><path d="M330 608C330 804 441 888 585 888C731 888 816 801 816 632V0H1027V658C1027 934 862 1077 645 1077C506 1077 398 1017 326 897V1056H119V0H330Z" transform="translate(3881,2124) scale(1,-1)" fill="#FFFFFF"/><path d="M441 -17C623 -17 709 65 753 150H757V0H965V724C965 939 806 1077 546 1077C282 1077 111 935 101 734H308C316 831 408 904 543 904C677 904 756 830 756 728V719C756 642 690 644 492 620C277 595 75 543 75 302C75 91 231 -17 441 -17ZM484 153C361 153 285 207 285 298C285 405 389 446 504 463C616 479 728 496 757 519V395C757 265 670 153 484 153Z" transform="translate(4997,2124) scale(1,-1)" fill="#FFFFFF"/><path d="M119 0H330V624C330 796 427 877 546 877C595 877 641 870 657 867V1064C640 1066 612 1069 580 1069C446 1069 364 1000 325 885H321V1056H119Z" transform="translate(6051,2124) scale(1,-1)" fill="#FFFFFF"/><path d="M133 -418H267C410 -418 514 -338 573 -185L1053 1056H830L622 477C594 398 567 319 541 240C515 319 489 398 461 477L250 1056H24L432 7L384 -118C352 -204 313 -240 247 -240H133Z" transform="translate(6692,2124) scale(1,-1)" fill="#FFFFFF"/></svg>