<svg xmlns="http://www.w3.org/2000/svg" viewBox="52 472 7568 1959" fill="none"><path d="M573.0 2008.0 C875.0 2008.0 1078.0 1783.0 1078.0 1458.0 C1078.0 1131.0 875.0 904.0 573.0 904.0 C271.0 904.0 67.0 1131.0 67.0 1458.0 C67.0 1783.0 271.0 2008.0 573.0 2008.0 Z M573.0 1826.0 C392.0 1826.0 281.0 1683.0 281.0 1458.0 C281.0 1231.0 393.0 1086.0 573.0 1086.0 C753.0 1086.0 865.0 1231.0 865.0 1458.0 C865.0 1682.0 754.0 1826.0 573.0 1826.0 Z" fill="#FFFFFF"/><path d="M1207.0 1984.0 H1418.0 V1360.0 C1418.0 1188.0 1515.0 1107.0 1634.0 1107.0 C1683.0 1107.0 1729.0 1114.0 1745.0 1117.0 V920.0 C1728.0 918.0 1700.0 915.0 1668.0 915.0 C1534.0 915.0 1452.0 984.0 1413.0 1099.0 H1409.0 V928.0 H1207.0 Z" fill="#FFFFFF"/><path d="M1880.0 1984.0 H2091.0 V928.0 H1880.0 Z M1985.0 746.0 C2060.0 746.0 2119.0 689.0 2119.0 617.0 C2119.0 544.0 2060.0 487.0 1985.0 487.0 C1910.0 487.0 1852.0 544.0 1852.0 617.0 C1852.0 689.0 1910.0 746.0 1985.0 746.0 Z" fill="#FFFFFF"/><path d="M2748.0 2416.0 C3014.0 2416.0 3229.0 2290.0 3229.0 1970.0 V928.0 H3021.0 V1089.0 H3020.0 C2949.0 963.0 2829.0 907.0 2692.0 907.0 C2419.0 907.0 2235.0 1130.0 2235.0 1453.0 C2235.0 1775.0 2418.0 1998.0 2693.0 1998.0 C2832.0 1998.0 2946.0 1941.0 3019.0 1818.0 H3020.0 V1978.0 C3020.0 2149.0 2918.0 2244.0 2748.0 2244.0 C2620.0 2244.0 2525.0 2191.0 2498.0 2089.0 H2287.0 C2315.0 2296.0 2489.0 2416.0 2748.0 2416.0 Z M2736.0 1817.0 C2566.0 1817.0 2449.0 1689.0 2449.0 1452.0 C2449.0 1215.0 2566.0 1087.0 2736.0 1087.0 C2916.0 1087.0 3032.0 1231.0 3032.0 1452.0 C3032.0 1673.0 2916.0 1817.0 2736.0 1817.0 Z" fill="#FFFFFF"/><path d="M3435.0 1984.0 H3646.0 V928.0 H3435.0 Z M3540.0 746.0 C3615.0 746.0 3674.0 689.0 3674.0 617.0 C3674.0 544.0 3615.0 487.0 3540.0 487.0 C3465.0 487.0 3407.0 544.0 3407.0 617.0 C3407.0 689.0 3465.0 746.0 3540.0 746.0 Z" fill="#FFFFFF"/><path d="M4071.0 1376.0 C4071.0 1180.0 4182.0 1096.0 4326.0 1096.0 C4472.0 1096.0 4557.0 1183.0 4557.0 1352.0 V1984.0 H4768.0 V1326.0 C4768.0 1050.0 4603.0 907.0 4386.0 907.0 C4247.0 907.0 4139.0 967.0 4067.0 1087.0 V928.0 H3860.0 V1984.0 H4071.0 Z" fill="#FFFFFF"/><path d="M5298.0 2001.0 C5480.0 2001.0 5566.0 1919.0 5610.0 1834.0 H5614.0 V1984.0 H5822.0 V1260.0 C5822.0 1045.0 5663.0 907.0 5403.0 907.0 C5139.0 907.0 4968.0 1049.0 4958.0 1250.0 H5165.0 C5173.0 1153.0 5265.0 1080.0 5400.0 1080.0 C5534.0 1080.0 5613.0 1154.0 5613.0 1256.0 V1265.0 C5613.0 1342.0 5547.0 1340.0 5349.0 1364.0 C5134.0 1389.0 4932.0 1441.0 4932.0 1682.0 C4932.0 1893.0 5088.0 2001.0 5298.0 2001.0 Z M5341.0 1831.0 C5218.0 1831.0 5142.0 1777.0 5142.0 1686.0 C5142.0 1579.0 5246.0 1538.0 5361.0 1521.0 C5473.0 1505.0 5585.0 1488.0 5614.0 1465.0 V1589.0 C5614.0 1719.0 5527.0 1831.0 5341.0 1831.0 Z" fill="#FFFFFF"/><path d="M6030.0 1984.0 H6241.0 V1360.0 C6241.0 1188.0 6338.0 1107.0 6457.0 1107.0 C6506.0 1107.0 6552.0 1114.0 6568.0 1117.0 V920.0 C6551.0 918.0 6523.0 915.0 6491.0 915.0 C6357.0 915.0 6275.0 984.0 6236.0 1099.0 H6232.0 V928.0 H6030.0 Z" fill="#FFFFFF"/><path d="M6685.0 2402.0 H6819.0 C6962.0 2402.0 7066.0 2322.0 7125.0 2169.0 L7605.0 928.0 H7382.0 L7174.0 1507.0 C7146.0 1586.0 7119.0 1665.0 7093.0 1744.0 C7067.0 1665.0 7041.0 1586.0 7013.0 1507.0 L6802.0 928.0 H6576.0 L6984.0 1977.0 L6936.0 2102.0 C6904.0 2188.0 6865.0 2224.0 6799.0 2224.0 H6685.0 Z" fill="#FFFFFF"/></svg>