<svg xmlns="http://www.w3.org/2000/svg" viewBox="48 469 7823 1962" fill="none"><path d="M584.0 2008.0 C895.0 2008.0 1105.0 1785.0 1105.0 1457.0 C1105.0 1129.0 895.0 904.0 584.0 904.0 C273.0 904.0 63.0 1129.0 63.0 1457.0 C63.0 1785.0 273.0 2008.0 584.0 2008.0 Z M584.0 1797.0 C421.0 1797.0 318.0 1668.0 318.0 1457.0 C318.0 1245.0 422.0 1115.0 584.0 1115.0 C745.0 1115.0 849.0 1246.0 849.0 1457.0 C849.0 1667.0 746.0 1797.0 584.0 1797.0 Z" fill="#0B0B0C"/><path d="M1221.0 1984.0 H1473.0 V1386.0 C1473.0 1221.0 1566.0 1138.0 1686.0 1138.0 C1736.0 1138.0 1786.0 1143.0 1805.0 1146.0 V922.0 C1785.0 920.0 1757.0 918.0 1723.0 918.0 C1587.0 918.0 1506.0 982.0 1467.0 1103.0 H1464.0 V928.0 H1221.0 Z" fill="#0B0B0C"/><path d="M1928.0 1984.0 H2180.0 V928.0 H1928.0 Z M2054.0 771.0 C2140.0 771.0 2205.0 709.0 2205.0 627.0 C2205.0 546.0 2140.0 484.0 2054.0 484.0 C1968.0 484.0 1903.0 546.0 1903.0 627.0 C1903.0 709.0 1968.0 771.0 2054.0 771.0 Z" fill="#0B0B0C"/><path d="M2841.0 2416.0 C3127.0 2416.0 3340.0 2284.0 3340.0 1957.0 V928.0 H3091.0 V1085.0 H3090.0 C3020.0 964.0 2905.0 907.0 2768.0 907.0 C2497.0 907.0 2313.0 1130.0 2313.0 1451.0 C2313.0 1769.0 2494.0 1991.0 2770.0 1991.0 C2909.0 1991.0 3021.0 1935.0 3089.0 1811.0 H3090.0 V1972.0 C3090.0 2134.0 2999.0 2221.0 2841.0 2221.0 C2723.0 2221.0 2636.0 2173.0 2612.0 2082.0 H2365.0 C2393.0 2287.0 2562.0 2416.0 2841.0 2416.0 Z M2829.0 1783.0 C2673.0 1783.0 2568.0 1664.0 2568.0 1448.0 C2568.0 1233.0 2673.0 1113.0 2829.0 1113.0 C2994.0 1113.0 3102.0 1245.0 3102.0 1448.0 C3102.0 1651.0 2994.0 1783.0 2829.0 1783.0 Z" fill="#0B0B0C"/><path d="M3532.0 1984.0 H3784.0 V928.0 H3532.0 Z M3658.0 771.0 C3744.0 771.0 3809.0 709.0 3809.0 627.0 C3809.0 546.0 3744.0 484.0 3658.0 484.0 C3572.0 484.0 3507.0 546.0 3507.0 627.0 C3507.0 709.0 3572.0 771.0 3658.0 771.0 Z" fill="#0B0B0C"/><path d="M4236.0 1387.0 C4236.0 1207.0 4335.0 1128.0 4467.0 1128.0 C4602.0 1128.0 4680.0 1209.0 4680.0 1364.0 V1984.0 H4933.0 V1324.0 C4933.0 1053.0 4777.0 907.0 4556.0 907.0 C4411.0 907.0 4304.0 971.0 4232.0 1090.0 V928.0 H3984.0 V1984.0 H4236.0 Z" fill="#0B0B0C"/><path d="M5449.0 2001.0 C5621.0 2001.0 5710.0 1929.0 5760.0 1835.0 H5764.0 V1984.0 H6012.0 V1264.0 C6012.0 1044.0 5849.0 907.0 5574.0 907.0 C5298.0 907.0 5126.0 1046.0 5114.0 1256.0 H5357.0 C5364.0 1167.0 5446.0 1103.0 5569.0 1103.0 C5690.0 1103.0 5762.0 1167.0 5762.0 1257.0 V1265.0 C5762.0 1337.0 5695.0 1340.0 5499.0 1362.0 C5281.0 1385.0 5084.0 1444.0 5084.0 1684.0 C5084.0 1895.0 5239.0 2001.0 5449.0 2001.0 Z M5511.0 1814.0 C5401.0 1814.0 5330.0 1765.0 5330.0 1682.0 C5330.0 1586.0 5422.0 1547.0 5530.0 1531.0 C5634.0 1515.0 5732.0 1499.0 5763.0 1479.0 V1593.0 C5763.0 1716.0 5676.0 1814.0 5511.0 1814.0 Z" fill="#0B0B0C"/><path d="M6205.0 1984.0 H6457.0 V1386.0 C6457.0 1221.0 6550.0 1138.0 6670.0 1138.0 C6720.0 1138.0 6770.0 1143.0 6789.0 1146.0 V922.0 C6769.0 920.0 6741.0 918.0 6707.0 918.0 C6571.0 918.0 6490.0 982.0 6451.0 1103.0 H6448.0 V928.0 H6205.0 Z" fill="#0B0B0C"/><path d="M6899.0 2402.0 H7064.0 C7217.0 2402.0 7321.0 2323.0 7384.0 2158.0 L7856.0 928.0 H7592.0 L7399.0 1478.0 C7372.0 1556.0 7347.0 1634.0 7323.0 1712.0 C7299.0 1634.0 7273.0 1556.0 7247.0 1478.0 L7053.0 928.0 H6786.0 L7193.0 1978.0 L7154.0 2080.0 C7124.0 2163.0 7092.0 2197.0 7024.0 2197.0 H6899.0 Z" fill="#0B0B0C"/></svg>